<svg width="49" height="52" viewBox="0 0 49 52" fill="none" xmlns="http://www.w3.org/2000/svg">
<path d="M24.4629 16.9586V13.7914C23.4931 13.5089 22.7687 13.0915 22.3146 12.5145C21.8606 11.9501 21.6273 11.2502 21.6273 10.44C21.6273 9.61773 21.8851 8.91786 22.4004 8.36555C22.9282 7.80113 23.6035 7.48156 24.4629 7.39576V6.64673H25.5556V7.39576C26.3659 7.48156 27.004 7.76401 27.4707 8.20601C27.9493 8.66005 28.2563 9.2616 28.3792 10.0227L26.4763 10.2681C26.3534 9.67858 26.0463 9.27369 25.5557 9.06498V12.0115C26.7708 12.3306 27.5936 12.76 28.0356 13.2758C28.4776 13.8035 28.6863 14.4663 28.6863 15.289C28.6863 16.1976 28.4164 16.9587 27.864 17.5848C27.3116 18.2109 26.5505 18.5912 25.5562 18.7512V20.1629H24.4635V18.7632C23.6041 18.6648 22.9042 18.3337 22.3643 17.8059C21.8245 17.2661 21.4683 16.4924 21.3208 15.5102L23.285 15.2889C23.3587 15.6818 23.5057 16.0255 23.727 16.3204C23.9472 16.6149 24.193 16.8236 24.463 16.9586L24.4629 16.9586ZM24.4629 9.02867C24.1684 9.13905 23.9351 9.31112 23.763 9.55645C23.5909 9.78974 23.5051 10.0597 23.5051 10.3542C23.5051 10.612 23.5909 10.8699 23.7384 11.0907C23.898 11.324 24.1433 11.5081 24.4629 11.643V9.02867ZM25.5556 17.0815C25.9364 16.9957 26.2429 16.8116 26.4887 16.5417C26.722 16.2592 26.8449 15.9281 26.8449 15.5473C26.8449 15.2157 26.7466 14.9212 26.5379 14.6879C26.3412 14.4426 26.0221 14.2459 25.5561 14.123L25.5556 17.0815Z" fill="#06AC72"/>
<path d="M38.7431 32.7888C38.5041 32.7888 38.2635 32.7059 38.0688 32.5367C37.6394 32.1641 37.5931 31.5134 37.9657 31.084C38.0187 31.0228 38.0862 30.9461 38.1657 30.8565C41.453 27.1354 41.4573 25.9443 41.3802 25.6682C41.3725 25.6402 41.3489 25.5559 41.0785 25.471C40.5358 25.3004 40.234 24.7225 40.4047 24.1797C40.5748 23.637 41.1527 23.3357 41.696 23.5059C42.8017 23.8529 43.2138 24.573 43.3646 25.1158C43.9175 27.1035 41.827 29.8226 39.7096 32.22C39.6349 32.3048 39.5712 32.3767 39.5216 32.434C39.3177 32.6688 39.0309 32.7888 38.7432 32.7888H38.7431Z" fill="#06AC72"/>
<path d="M42.019 51.2101C41.9477 51.2101 41.8749 51.2053 41.8026 51.1952C40.4043 51.0048 38.9916 50.2254 37.496 49.4002C36.2385 48.7066 34.9384 47.9893 33.775 47.7339C33.561 47.6871 33.3643 47.6693 33.1556 47.6505C32.6331 47.6037 31.9179 47.5396 31.3852 46.8634C30.6655 45.9606 30.44 42.6101 30.439 42.2781C30.4472 40.9203 31.6329 40.497 32.4176 40.217C33.9137 39.6762 38.1558 39.3923 40.0091 39.3923C40.2934 39.3923 40.5417 39.3981 40.7465 39.4097C41.4743 39.4507 42.515 39.5924 43.1431 40.351C43.6766 41.0042 43.7431 42.3528 43.6839 46.3515C43.6694 47.316 43.6564 48.227 43.6872 48.6507C43.7162 49.0657 43.7186 50.0905 43.1262 50.7248C42.8346 51.0381 42.4413 51.2102 42.019 51.2102L42.019 51.2101ZM33.0033 45.562C33.0881 45.5775 33.2293 45.59 33.3392 45.5996C33.5778 45.6213 33.8747 45.6474 34.2165 45.7225C35.6721 46.0421 37.1051 46.8326 38.4914 47.597C39.6265 48.2236 40.7081 48.8199 41.6346 49.0638C41.6394 48.9857 41.6399 48.896 41.6331 48.7972C41.596 48.2873 41.6095 47.3762 41.6249 46.3217C41.6457 44.9133 41.6837 42.3514 41.5025 41.629C41.4104 41.5827 41.1723 41.4964 40.632 41.466C40.4652 41.4569 40.256 41.4521 40.0097 41.4521C37.8282 41.4521 34.1443 41.7832 33.1147 42.1553C32.7812 42.2744 32.5994 42.3573 32.5026 42.4093C32.5324 43.2543 32.8019 45.042 33.0034 45.5621L33.0033 45.562Z" fill="#06AC72"/>
<path fill-rule="evenodd" clip-rule="evenodd" d="M38.6479 44.1408C38.804 43.7191 39.2634 43.5012 39.6765 43.653C40.0982 43.8092 40.3166 44.2686 40.1599 44.6898C40.0076 45.1029 39.5487 45.3212 39.1357 45.1694C38.71 45.0219 38.496 44.5539 38.6479 44.1408Z" fill="#06AC72"/>
<path d="M32.7648 42.2173C32.5662 42.2173 32.3695 42.1599 32.1994 42.0486C31.928 41.8702 31.7569 41.5753 31.7366 41.2513C31.7203 40.9872 31.7005 40.7023 31.6798 40.4016C31.5376 38.3565 31.3433 35.5559 31.8538 33.6906C32.236 32.2706 33.6285 29.7405 35.1637 27.6795C37.2695 24.8526 39.1783 23.4075 40.8383 23.3834C40.5842 21.1426 40.6498 18.4462 41.2374 16.6995C41.6181 15.5518 42.8655 13.7251 44.5869 13.7251C44.89 13.7251 45.1894 13.7839 45.4757 13.9006C46.2999 14.2375 46.8937 15.1817 47.3483 16.8726C47.6746 18.0873 47.9228 19.676 48.0665 21.4662C48.3108 24.5191 48.2487 28.3574 47.5584 30.0506C46.7178 32.1213 45.5894 33.2781 44.5932 34.2995C43.2224 35.7051 42.0381 36.9192 41.7152 40.5309C41.6655 41.0842 41.1864 41.4997 40.6316 41.4674C40.4648 41.4583 40.2557 41.4534 40.0093 41.4534C37.8278 41.4534 34.1439 41.7846 33.1143 42.1567C33.0015 42.1972 32.8829 42.2174 32.7648 42.2174L32.7648 42.2173ZM40.8812 25.442C40.1649 25.442 38.7208 26.353 36.816 28.9091C35.3044 30.9378 34.1168 33.2076 33.842 34.2294C33.4482 35.6687 33.5831 38.0488 33.7104 39.905C35.5285 39.585 38.2562 39.411 39.774 39.3936C40.2917 35.7593 41.7271 34.2872 43.1196 32.8601C44.0672 31.8884 44.9623 30.971 45.6511 29.2735C46.095 28.1837 46.2604 25.0223 46.0358 21.9187C45.7446 17.891 45.0028 16.0744 44.6746 15.7978C44.6457 15.7886 44.6168 15.7838 44.5874 15.7838C44.1699 15.7838 43.4392 16.6042 43.1915 17.3513C42.577 19.1786 42.6705 22.6345 43.1419 24.7182C43.247 25.1824 43.0204 25.6576 42.5939 25.8687C42.1673 26.0794 41.652 25.9709 41.347 25.6056C41.3407 25.5983 41.2819 25.5323 41.0872 25.4735C41.0838 25.4725 41.0799 25.4711 41.0766 25.4701C41.0168 25.4518 40.9527 25.4422 40.8814 25.4422L40.8812 25.442Z" fill="#06AC72"/>
<path d="M10.8869 31.7141C10.6083 31.7141 10.3311 31.6018 10.1282 31.3805C10.0742 31.3217 10.0053 31.248 9.92432 31.1612C7.77605 28.863 5.37705 25.957 5.89579 23.8685C6.03509 23.3074 6.43804 22.5564 7.56542 22.1675C8.10334 21.9819 8.68945 22.2673 8.87499 22.8047C9.06052 23.3421 8.77521 23.9287 8.23777 24.1143C7.93122 24.2203 7.90471 24.3254 7.89508 24.3649C7.82085 24.6628 7.857 25.9329 11.4297 29.7552C11.5155 29.8473 11.5887 29.9254 11.6461 29.988C12.0307 30.4069 12.0028 31.0585 11.5839 31.4432C11.3853 31.6244 11.1356 31.7141 10.8869 31.7141L10.8869 31.7141Z" fill="#06AC72"/>
<path d="M7.97869 51.1199C7.55935 51.1199 7.16506 50.9503 6.86911 50.6418C6.2589 50.006 6.23335 48.9616 6.2507 48.5422C6.27095 48.0915 6.22998 47.1357 6.1866 46.1244C6.00777 41.9483 6.0362 40.539 6.56208 39.8565C7.19062 39.053 8.26306 38.8761 9.01551 38.8129C9.41026 38.7797 9.94288 38.7628 10.5999 38.7628C12.6045 38.7628 16.3189 38.9392 17.7542 39.413C18.5673 39.6776 19.8028 40.0801 19.8499 41.4586C19.8591 41.8139 19.7231 45.3141 18.9992 46.2757C18.4776 46.978 17.742 47.0648 17.2047 47.1279C16.9945 47.1525 16.7776 47.178 16.5515 47.2344C15.3326 47.5381 13.9878 48.33 12.6869 49.0959C11.1473 50.0026 9.69361 50.8586 8.24374 51.0977C8.15506 51.1122 8.06588 51.1199 7.97865 51.1199L7.97869 51.1199ZM8.24042 41.0804C8.064 41.8207 8.18065 44.5435 8.24475 46.0358C8.29199 47.1396 8.33296 48.093 8.30886 48.6299C8.30356 48.7571 8.31031 48.8743 8.32236 48.9721C9.30516 48.6969 10.4446 48.0259 11.6424 47.3203C13.0695 46.4801 14.5454 45.6107 16.0547 45.2352C16.4075 45.1475 16.7165 45.1108 16.9647 45.0819C17.0929 45.067 17.2601 45.0472 17.3474 45.0255C17.5489 44.4972 17.7908 42.5278 17.7928 41.6332C17.694 41.5812 17.4968 41.4944 17.1127 41.3691C16.1332 41.0457 12.8956 40.8215 10.5999 40.8215C10.0089 40.8215 9.52113 40.8365 9.18849 40.8644C8.58502 40.916 8.33486 41.023 8.24039 41.0804L8.24042 41.0804Z" fill="#06AC72"/>
<path fill-rule="evenodd" clip-rule="evenodd" d="M11.3498 43.6609C11.1734 43.2233 10.6861 43.0083 10.2576 43.1799C9.8204 43.3558 9.60494 43.8436 9.78136 44.2808C9.95295 44.7093 10.4402 44.9248 10.8692 44.7532C11.3107 44.5859 11.5209 44.0899 11.3498 43.6609H11.3498Z" fill="#06AC72"/>
<path d="M17.4306 41.4213C17.3221 41.4213 17.2132 41.4044 17.1076 41.3692C16.1321 41.0473 12.8944 40.8226 10.5987 40.8226C10.0082 40.8226 9.51994 40.8376 9.1873 40.8656C8.63444 40.9113 8.14329 40.5113 8.07821 39.9599C7.63139 36.1655 6.34824 34.9225 4.86321 33.4822C3.79268 32.4445 2.57896 31.2685 1.64056 29.1307C0.871763 27.3849 0.694385 23.3722 0.860201 20.1708C0.957565 18.2928 1.17061 16.6237 1.4762 15.3435C1.89892 13.5741 2.48504 12.5783 3.32031 12.2086C3.63506 12.0703 3.96329 12.0009 4.29829 12.0009C6.04455 12.0009 7.36189 13.8358 7.78217 14.9926C8.45119 16.8112 8.5953 19.6565 8.38853 22.0174C10.1339 21.96 12.193 23.4283 14.5091 26.3728C16.1614 28.4738 17.6791 31.0612 18.1173 32.525C18.7039 34.453 18.5824 37.3899 18.4938 39.5343C18.4807 39.85 18.4682 40.1494 18.4591 40.4265C18.4484 40.7504 18.285 41.0507 18.019 41.2363C17.8445 41.3582 17.6382 41.4214 17.4305 41.4214L17.4306 41.4213ZM10.5987 38.7635C12.1421 38.7635 14.6995 38.8681 16.4492 39.1328C16.5288 37.1714 16.6064 34.6347 16.1456 33.1202C15.3797 30.5623 10.7395 24.0759 8.48363 24.0759C8.39301 24.0759 8.31252 24.0884 8.23829 24.1144C8.23491 24.1154 8.23154 24.1169 8.22768 24.1178C8.0638 24.1728 7.96981 24.2378 7.93607 24.2802C7.64157 24.6538 7.12919 24.7772 6.69683 24.5786C6.26448 24.38 6.02492 23.9106 6.11651 23.444C6.55127 21.2388 6.54646 17.6011 5.84707 15.7001C5.58389 14.9752 4.80257 14.0608 4.29738 14.0608C4.25448 14.0608 4.21399 14.0685 4.17109 14.0849C3.83321 14.3626 3.09526 16.2732 2.90299 20.5452C2.75502 23.8267 3.02204 27.1616 3.52478 28.302C4.30177 30.0709 5.27017 31.0103 6.29581 32.0043C7.79626 33.4589 9.34447 34.9594 9.98747 38.7691C10.1779 38.7653 10.3817 38.7634 10.5986 38.7634L10.5987 38.7635Z" fill="#06AC72"/>
<path d="M25.0032 26.0194C18.0474 26.0194 12.3888 20.3602 12.3888 13.405C12.3888 6.44919 18.0479 0.790527 25.0032 0.790527C31.959 0.790527 37.6176 6.44969 37.6176 13.405C37.6171 20.3607 31.9585 26.0194 25.0032 26.0194ZM25.0032 2.84872C19.183 2.84872 14.4478 7.58392 14.4478 13.4041C14.4478 19.2243 19.183 23.9595 25.0032 23.9595C30.8234 23.9595 35.5586 19.2243 35.5586 13.4041C35.5581 7.58392 30.8234 2.84872 25.0032 2.84872Z" fill="#06AC72"/>
</svg>
