<svg width="45" height="50" viewBox="0 0 45 50" fill="none" xmlns="http://www.w3.org/2000/svg">
<path d="M43.2355 3.49676C42.8114 3.49676 42.4676 3.84055 42.4676 4.265V9.64075H40.7905C40.632 9.19318 40.3393 8.8052 39.9521 8.53036C39.5649 8.25549 39.1024 8.1067 38.6276 8.10467H35.5558C35.1033 8.10467 34.6614 8.23806 34.2844 8.48778C33.9074 8.73711 33.6118 9.09225 33.4355 9.5086L26.4936 8.12006C26.4429 8.10993 26.3915 8.10466 26.34 8.10466H24.8038V6.56895C25.1343 6.56855 25.4278 6.35692 25.532 6.04354L25.5595 5.96003V5.95962C26.1202 6.47612 26.9002 6.68165 27.6425 6.50896C28.3848 6.33625 28.9933 5.8076 29.2686 5.09655C29.5439 4.38586 29.4498 3.58523 29.0172 2.95764C28.5847 2.33006 27.8699 1.9571 27.1078 1.96114C27.0312 1.96114 26.9594 1.97655 26.886 1.98344L27.0689 1.43574C27.1467 1.20141 27.1074 0.943973 26.9631 0.743699C26.8187 0.543426 26.5868 0.425049 26.34 0.425049H18.6603C18.4134 0.425049 18.1819 0.543831 18.0376 0.744105C17.8933 0.944378 17.8543 1.20182 17.9322 1.43574L18.115 1.98344C18.0404 1.97655 17.9691 1.96114 17.892 1.96114C17.1299 1.95668 16.4152 2.32966 15.9826 2.95724C15.5496 3.58482 15.4556 4.38553 15.7304 5.09656C16.0057 5.80724 16.6146 6.33585 17.357 6.50855C18.0993 6.68166 18.8789 6.47612 19.4395 5.95962L19.4671 6.04314L19.4675 6.04354C19.5717 6.35732 19.8656 6.56895 20.196 6.56895V8.10507L18.6603 8.10467C18.6084 8.10467 18.5573 8.10994 18.5066 8.12007L11.562 9.50944C11.3856 9.09349 11.0909 8.73875 10.7143 8.48903C10.3376 8.2393 9.89615 8.10551 9.44456 8.1047H6.37273C5.89759 8.10673 5.43502 8.25551 5.04782 8.53039C4.66105 8.80525 4.36835 9.19323 4.20984 9.64078H2.53267V4.26503C2.53267 3.84058 2.18888 3.49679 1.76483 3.49679C1.34037 3.49679 0.996582 3.84058 0.996582 4.26503V13.4808C0.996582 13.6843 1.07766 13.8797 1.22159 14.0237C1.36551 14.1676 1.56091 14.2487 1.76484 14.2487H4.06876V15.0165C4.06876 15.2204 4.14944 15.4154 4.29336 15.5598C4.43768 15.7037 4.63309 15.7844 4.83661 15.7844V23.4644H3.30049C2.87644 23.4644 2.53265 23.8082 2.53265 24.2323V33.4481C2.53265 33.6516 2.61373 33.847 2.75766 33.9909C2.90157 34.1352 3.09698 34.2159 3.3005 34.2159H4.06875V37.2882C4.06875 37.8991 4.31118 38.4849 4.74335 38.9171C5.17552 39.3492 5.76134 39.5921 6.37267 39.5921H9.44449C9.64801 39.5921 9.84342 39.511 9.98734 39.3671C10.1317 39.2227 10.2123 39.0277 10.2123 38.8238V35.752C10.2111 35.1698 9.98815 34.6104 9.58883 34.1867C9.94721 34.1227 10.2091 33.8121 10.2123 33.448V24.2323C10.2123 24.0288 10.1317 23.8333 9.98734 23.6894C9.84342 23.5451 9.64802 23.4644 9.44449 23.4644V15.7843H10.2123V16.5526C10.2123 16.6503 10.231 16.7472 10.2671 16.838L13.3389 24.5177V24.5181C13.4557 24.8096 13.7382 25.0005 14.0524 25.0001H17.8925V25.7679L16.5375 25.7683C15.8787 25.7691 15.2471 26.031 14.7809 26.4969C14.3151 26.9631 14.0532 27.5947 14.0524 28.2535V28.6589C14.0524 28.9849 14.1172 29.3076 14.2429 29.608H14.0524C13.6283 29.608 13.2841 29.9518 13.2841 30.3762V32.6801H12.5163C12.0922 32.6801 11.7484 33.0239 11.7484 33.448V41.8956H10.9806C10.6895 41.8956 10.4231 42.0602 10.293 42.3204L7.22119 48.4644C7.102 48.7024 7.11497 48.9849 7.25484 49.2116C7.39511 49.4378 7.64241 49.5756 7.90836 49.5756H20.1954C20.4132 49.5764 20.6211 49.4852 20.7679 49.3243C20.9142 49.1629 20.9852 48.9472 20.9637 48.7307L19.4276 33.3716V33.3712C19.3878 32.9776 19.0554 32.6784 18.6597 32.6804H17.8915V31.1443H27.1073V32.6804H26.3394C25.9433 32.6784 25.6109 32.9776 25.5716 33.3712L24.0355 48.7303V48.7307C24.0136 48.9472 24.0849 49.1629 24.2313 49.3243C24.3776 49.4852 24.5856 49.5764 24.8033 49.5756H37.0914C37.3574 49.5756 37.6047 49.4378 37.7446 49.2116C37.8848 48.9849 37.8974 48.7024 37.7786 48.4644L34.7068 42.3204C34.5767 42.0602 34.3103 41.8956 34.0192 41.8956H33.2514V33.448C33.2514 33.2445 33.1703 33.0491 33.0264 32.9047C32.8825 32.7608 32.687 32.6801 32.4835 32.6801H31.7153V30.3762C31.7153 30.1723 31.6346 29.9769 31.4903 29.833C31.3463 29.689 31.1509 29.608 30.9474 29.608H30.7569C30.8826 29.3076 30.947 28.9848 30.9474 28.6589V28.2535C30.9466 27.5947 30.6843 26.963 30.2185 26.4968C29.7527 26.031 29.1211 25.7691 28.4622 25.7683H27.1073V25.0001H30.9474C31.2616 25.0005 31.5441 24.8095 31.6609 24.518L34.7327 16.8384V16.838C34.7688 16.7472 34.7875 16.6503 34.7875 16.5526V15.7843H35.5553V23.4644C35.1312 23.4644 34.7875 23.8082 34.7875 24.2322V33.448C34.787 33.654 34.8702 33.8518 35.0177 33.9957C34.8673 34.3034 34.7887 34.6415 34.7875 34.9841V38.0559C34.7875 38.2594 34.8681 38.4549 35.0121 38.5988C35.1564 38.7431 35.3514 38.8238 35.5553 38.8238H38.6271C39.2381 38.8238 39.8243 38.581 40.2565 38.1492C40.6882 37.717 40.9311 37.1308 40.9311 36.5199V34.2159H41.6989C41.9028 34.2159 42.0982 34.1353 42.2421 33.9909C42.3861 33.847 42.4671 33.6516 42.4671 33.4481V24.2323C42.4671 24.0288 42.3861 23.8334 42.2421 23.6895C42.0982 23.5451 41.9028 23.4645 41.6989 23.4645H40.1632V15.7844C40.3667 15.7844 40.5621 15.7037 40.706 15.5598C40.8504 15.4155 40.931 15.2205 40.931 15.0165V14.2487H43.235C43.4389 14.2487 43.6339 14.1676 43.7782 14.0237C43.9221 13.8798 44.0028 13.6844 44.0028 13.4808V4.26505C44.0028 4.06113 43.9221 3.86571 43.7782 3.7218C43.6339 3.57788 43.4389 3.49679 43.235 3.49679L43.2355 3.49676ZM27.8764 4.265C27.8764 4.57555 27.6891 4.85569 27.402 4.97447C27.115 5.09325 26.785 5.02758 26.5653 4.80784C26.3455 4.58811 26.2799 4.2581 26.3986 3.97108C26.5174 3.68405 26.7976 3.49675 27.1081 3.49675C27.312 3.49675 27.5074 3.57783 27.6514 3.72175C27.7953 3.86567 27.8764 4.06108 27.8764 4.265ZM17.8924 5.03285C17.5818 5.03285 17.3017 4.84555 17.1829 4.55892C17.0641 4.2719 17.1298 3.94149 17.3495 3.72175C17.5693 3.50202 17.8993 3.43635 18.1863 3.55513C18.4733 3.67431 18.6606 3.95406 18.6606 4.265C18.6606 4.46851 18.5795 4.66392 18.4356 4.80784C18.2917 4.95176 18.0963 5.03285 17.8924 5.03285ZM25.2741 1.96102L24.2508 5.03285H20.7501L19.7265 1.96102H25.2741ZM21.7324 6.56886H23.2685V8.10498L21.7324 8.10458V6.56886ZM2.53324 12.7124V11.1767H4.06936V12.7128L2.53324 12.7124ZM4.06936 24.9995H8.6772V32.6796H4.06936V24.9995ZM8.6772 38.0556H6.37328C5.94882 38.0556 5.60503 37.7118 5.60503 37.2878V34.9839H7.90895C8.11287 34.9839 8.30788 35.0645 8.4522 35.2085C8.59612 35.3528 8.67721 35.5478 8.67721 35.7517L8.6772 38.0556ZM7.90895 23.4645H6.37325V15.7844H7.90937L7.90895 23.4645ZM8.67679 14.2487H5.60497V10.4087C5.60497 9.98464 5.94876 9.64085 6.37322 9.64085H9.44504C9.64855 9.64085 9.84397 9.72153 9.98789 9.86586C10.1322 10.0098 10.2129 10.2052 10.2129 10.4087V14.2487L8.67679 14.2487ZM15.5887 28.6593V28.2539C15.5891 27.7297 16.0139 27.3048 16.5381 27.3044H17.8926V29.6083H16.5381C16.0139 29.6079 15.5891 29.1834 15.5887 28.6593V28.6593ZM9.15161 48.0401L11.4555 43.4322H13.4521L14.6039 48.0401H9.15161ZM19.3472 48.0401H16.1886L14.7977 42.4774C14.7122 42.136 14.4053 41.8964 14.053 41.896H13.2847V34.2164H17.9656L19.3472 48.0401ZM14.8209 32.6809V31.1448H16.357V32.6809H14.8209ZM35.8498 48.0401H30.397L31.5488 43.4322H33.5454L35.8498 48.0401ZM30.9487 41.8961C30.5964 41.8965 30.2895 42.1361 30.2036 42.4774L28.8131 48.0401H25.6537L27.0362 34.216H31.7167V41.8956L30.9487 41.8961ZM28.6448 32.6807V31.1446H30.1809V32.6807H28.6448ZM28.4636 27.305V27.3046C28.9878 27.305 29.4122 27.7298 29.4126 28.254V28.6594C29.4122 29.1836 28.9878 29.6081 28.4636 29.6085H27.1087V27.3046L28.4636 27.305ZM25.573 26.5367V29.6086H19.429V25.0007H25.573V26.5367ZM33.2526 16.4056L30.4285 23.465H14.5733L11.7496 16.4056V11.0392L18.7381 9.64128H26.2642L33.253 11.0392V16.406L33.2526 16.4056ZM34.7887 10.4092C34.7887 9.98513 35.1325 9.64134 35.5566 9.64134H38.6284C38.8323 9.64134 39.0273 9.72202 39.1717 9.86635C39.3156 10.0103 39.3963 10.2057 39.3963 10.4092V14.2492H34.7887L34.7887 10.4092ZM39.3966 36.5204H39.3962C39.3962 36.7243 39.3155 36.9193 39.1716 37.0637C39.0273 37.2076 38.8323 37.2887 38.6283 37.2887H36.3244V34.9848C36.3244 34.5603 36.6682 34.2165 37.0927 34.2165H39.3966L39.3966 36.5204ZM40.9327 32.6804L36.3245 32.6808V25.0007H40.9323L40.9327 32.6804ZM38.6284 23.465H37.0927V15.7849H38.6288L38.6284 23.465ZM40.9323 11.1779H42.4684V12.714L40.9323 12.7136V11.1779Z" fill="#06AC72"/>
</svg>
